<?xml version="1.0" encoding="UTF-8"?>
<svg id="Ebene_2" data-name="Ebene 2" xmlns="http://www.w3.org/2000/svg" viewBox="0 0 148.73 94.67">
  <defs>
    <style>
      .cls-1 {
        fill: #171513;
      }

      .cls-2 {
        fill: #f3efe7;
      }
    </style>
  </defs>
  <g id="Ebene_1-2" data-name="Ebene 1">
    <g>
      <g>
        <path class="cls-1" d="M22.87.13c-6.27.54-10.86,3.82-14.2,10.62-3.52,7.29-3.76,17.13.77,24.59.82,1.36,1.74,2.51,2.73,3.49.23-.41.36-.86.4-1.33l.5-6.04c.05-.62.28-1.21.65-1.7-.49-1.41-.82-2.81-1.05-4.09-1.02-5.43-1.73-15.87,3.99-21.24,3.35-3.05,7.52-3.16,10.8-2.33,5.26,1.37,7.29,4.89,8.96,9.79h.83l2.03-7.04C33.25.67,28.3-.41,22.87.13Z"/>
        <path class="cls-1" d="M72.64,37.55L60.59.55h-3.82l-10.29,31.78.19.14c.54.41,1.21.63,1.89.65.19-.59.39-1.17.57-1.71l.6-1.92h14.2l2.15,7.25c.51-.11,1.03-.1,1.53.02l5.21,1.32c-.06-.17-.12-.35-.18-.53ZM50.32,27.59l6.75-20.89,6.26,20.89h-13.01Z"/>
        <path class="cls-1" d="M78.97.85c-2.21,2.68-4.3,5.25-3.58,7.76.3.96,2.62,2.21,3.04,4.3.18.9-.06,2.09-.84,2.87-.72.72-1.85,1.01-3.1.78-1.19-.18-2.39-1.19-2.98-2.75-1.01-2.39.12-5.73,1.97-8.54.96-1.37,2.03-2.68,4.48-5.25l1.01.84Z"/>
        <path class="cls-1" d="M110.24,1.27v.83c4.12,1.2,4.06,3.64,4.06,8.24v23.75L91.2,1.21h-9.13v.83c4.06,1.19,4,3.64,4,8.24v23.57c0,2.54.02,4.42-.65,5.8l2.86.07c.21.01.44.04.65.08l.56.13c-.82-1.4-.8-3.36-.8-6.08V7.41l25.61,35.99h2.56V10.34c0-4.6-.06-7.04,4.06-8.24v-.83h-10.68Z"/>
      </g>
      <path class="cls-1" d="M148.73,58.88v32.74c0,1.68-1.37,3.05-3.05,3.05H3.05c-1.68,0-3.05-1.37-3.05-3.05v-31.63c0-.51.13-1.01.37-1.46l2.85-5.22c.4-.75,1.13-1.21,1.93-1.5.48-.17.81-.62.81-1.16v-3.53c0-.82.31-1.61.86-2.23l4.91-5.44c.17-.19.32-.4.44-.62.23-.41.36-.86.4-1.33l.5-6.04c.05-.62.28-1.21.65-1.7.19-.25.4-.47.65-.66l6.58-5.03c.44-.34.94-.56,1.49-.64l4.6-.76c.41-.06.83-.05,1.23.04l6.59,1.42c.45.1.88.29,1.25.58l10.37,7.62.19.14c.54.41,1.21.63,1.89.65h.02c.67.01,1.3.23,1.83.59.54.37.95.9,1.2,1.53l.68,1.75c.35.9,1.11,1.58,2.04,1.83.35.13.73.19,1.1.19.24,0,.47-.02.7-.07l9.94-2.2h.01c.51-.11,1.03-.1,1.53.02l5.21,1.32.72.18c.4.1.78.28,1.12.52l.03.03c.54.39,1.18.6,1.85.62l8.88.22,2.86.07c.21.01.44.04.65.08l.56.13,39.62,8.99c.21.06.43.13.62.22l4.29,1.9c.56.25,1.05.67,1.4,1.2l.72,1.07c.54.81,1.42,1.34,2.39,1.45l7.25.83c1.68.18,2.95,1.61,2.95,3.29Z"/>
      <g>
        <path class="cls-2" d="M30.63,55.99l-1.01-.12c-1.85-4.72-3.22-7.76-8.54-8.83-2.33-.42-5.55-.18-7.76,2.03-1.91,1.91-2.39,4.18-1.85,6.21.9,3.7,4.42,5.61,8.77,7.28l4.24,1.67c4.77,1.85,10.09,5.07,10.33,11.04.18,4.41-.9,8.12-5.13,11.1-4.89,3.52-13.61,2.86-18.5.42-1.19-.6-2.81-1.49-5.13-3.22l2.33-8,.96.18c1.01,4.48,3.16,9.31,8.41,11.04,2.39.72,7.22.54,9.85-1.73,2.62-2.21,3.16-5.37,2.62-7.82-.72-3.28-3.94-5.73-8.12-7.46l-4.42-1.79c-5.55-2.33-9.55-4.54-10.2-10.74-.3-3.22,1.01-7.4,5.13-10.09,4.48-2.93,12.23-2.27,16.95.3.84.42,1.25.65,2.75,1.67l-1.67,6.86Z"/>
        <path class="cls-2" d="M69.9,51.22c5.49,6.15,6.68,15.1,4.95,21.67-1.67,6.5-5.43,12.77-12.65,15.1-4.54,1.49-11.52,1.31-16.65-2.69-7.04-5.37-8.36-14.62-7.76-20.47.6-6.39,3.82-13.67,10.5-17.43,1.73-1.01,3.64-1.67,5.61-1.97,4.3-.66,11.22.48,15.99,5.79ZM50.2,85.47c3.04,2.15,8.48,1.85,10.92.78,5.85-2.57,7.22-8.95,7.82-13.31.6-4.06,1.31-18.32-5.13-23.57-3.17-2.63-8-2.8-10.86-1.79-7.52,2.75-8.59,12.59-8.89,16.83-.36,4.96-.54,16.47,6.15,21.07Z"/>
        <path class="cls-2" d="M101.76,72.58c1.01,3.22,1.73,5.07,3.28,8.12,2.39,4.83,4.24,7.76,7.7,11.34v1.13c-8.71-3.46-15.34-14.08-17.9-21.66-.3-.78-.78-2.33-.78-2.33h-6.92v11.88c0,3.4-.3,5.61,2.39,6.27v.84h-10.62v-.84c2.57-.66,2.39-2.57,2.39-5.25v-29.84c0-2.33.12-4.41-2.39-4.95v-.83s7.22-.36,11.94-.48c7.94-.18,15.93-.12,19.87,6.68,1.61,2.81,1.91,6.98.12,9.85-2.39,3.94-6.51,5.37-10.15,6.15.42,1.73.65,2.45,1.07,3.94ZM105.64,58.68c.36-2.63-.18-7.04-4.12-9.49-2.86-1.79-9.97-2.51-12.35-1.31-2.33,1.19-2.03,4-2.03,5.67v13.73c2.98.18,10.27.3,13.37-1.01,3.76-1.67,4.72-4.36,5.13-7.58Z"/>
        <path class="cls-2" d="M148.73,55.03l-1.07.18c-1.25-2.15-2.75-4-4.48-5.13-2.63-1.67-6.98-2.09-8.24-1.55-1.07.54-.95,2.51-.95,5.13v27.51c0,3.46-.24,5.55,2.45,6.15v.84h-10.68v-.84c2.62-.6,2.39-2.75,2.39-6.03v-27.63c0-2.62.12-4.59-.96-5.13-1.19-.54-5.55-.12-8.24,1.55-1.73,1.13-3.16,2.98-4.42,5.13l-1.13-.18,2.27-8.59h30.85l2.21,8.59Z"/>
      </g>
    </g>
  </g>
</svg>