<svg id="Ebene_1" data-name="Ebene 1" xmlns="http://www.w3.org/2000/svg" viewBox="0 0 433.89 154.58"><defs><style>.cls-1{fill:#ff4370;}</style></defs><rect class="cls-1" x="181.85" y="-0.13" width="5.56" height="148.97"/><path class="cls-1" d="M109.66,71.34H0V4.56A4.56,4.56,0,0,1,4.56,0h105.1a35.67,35.67,0,0,1,35.68,35.67h0C145.34,60.29,129.37,71.34,109.66,71.34Z"/><path class="cls-1" d="M109.66,77.35H0v66.78a4.56,4.56,0,0,0,4.56,4.56h105.1A35.67,35.67,0,0,0,145.34,113h0C145.34,88.4,129.37,77.35,109.66,77.35Z"/><path class="cls-1" d="M235.22,136.2,231,148.7h-3.07l-4.34-17.79h3.27l2.94,12.77L234,130.91h2.5L240.74,144l3.32-13.07h3.24l-4.79,17.79h-3.09Z"/><path class="cls-1" d="M254.32,149.07c-4.84,0-7.21-2.79-7.21-7.23v-.35c0-4.57,2.84-7.49,7.31-7.49,4.94,0,7,3.54,7,7.21v1.52H250.36a3.77,3.77,0,0,0,4.09,3.65,3.15,3.15,0,0,0,3.26-1.93h3.52C260.38,147.35,258.06,149.07,254.32,149.07Zm-3.94-8.91h7.78c-.22-2.19-1.42-3.56-3.71-3.56A3.84,3.84,0,0,0,250.38,140.16Z"/><path class="cls-1" d="M281,145.83a6.21,6.21,0,0,1-5.87,3.24c-3.09,0-4.69-1.5-4.69-3.84a3.93,3.93,0,0,1,1.87-3.52c1.23-.77,2.22-1,4.94-1.37,2.55-.33,3.6-.67,3.6-1.85s-.8-1.94-3-1.94c-2.37,0-3.45,1-3.55,2.87H270.9c.22-3.25,2.64-5.42,6.73-5.42,4.64,0,6.34,1.95,6.34,5v9.68h-2.65Zm-.13-3.62v-.77a6.8,6.8,0,0,1-2.89.92,7.34,7.34,0,0,0-3.12.9,1.62,1.62,0,0,0-.85,1.5c0,1.14.72,1.79,2.24,1.79A4.52,4.52,0,0,0,280.85,142.21Z"/><path class="cls-1" d="M286.75,148.7V134.35h2.64l.42,3.37c.55-2.34,2.08-3.49,4.77-3.49h1v3.31h-1.42c-3.37,0-4.17,1.2-4.17,4.52v6.64Z"/><path class="cls-1" d="M303.57,149.07c-4.84,0-7.21-2.79-7.21-7.23v-.35c0-4.57,2.84-7.49,7.31-7.49,4.93,0,7,3.54,7,7.21v1.52H299.6a3.77,3.77,0,0,0,4.09,3.65,3.16,3.16,0,0,0,3.27-1.93h3.52C309.63,147.35,307.31,149.07,303.57,149.07Zm-3.95-8.91h7.79c-.23-2.19-1.42-3.56-3.72-3.56A3.84,3.84,0,0,0,299.62,140.16Z"/><path class="cls-1" d="M320.51,148.7V130.91h6.82c4.69,0,6.71,1.65,6.71,4.59a4,4,0,0,1-2.52,4.09,3.85,3.85,0,0,1,2.87,4c0,3.24-2.18,5.07-6.76,5.07Zm3.2-15.15v4.72h3.74c2.2,0,3.37-.73,3.37-2.42s-1-2.3-3.4-2.3Zm0,7.36v5h3.49c2.79,0,3.84-.87,3.84-2.54s-1.22-2.45-3.79-2.45Z"/><path class="cls-1" d="M346.64,145.83a6.18,6.18,0,0,1-5.86,3.24c-3.09,0-4.69-1.5-4.69-3.84a3.93,3.93,0,0,1,1.87-3.52c1.23-.77,2.22-1,4.94-1.37,2.55-.33,3.59-.67,3.59-1.85s-.79-1.94-3-1.94c-2.37,0-3.45,1-3.55,2.87h-3.36c.22-3.25,2.64-5.42,6.73-5.42,4.64,0,6.34,1.95,6.34,5v9.68H347Zm-.12-3.62v-.77a6.8,6.8,0,0,1-2.89.92,7.34,7.34,0,0,0-3.12.9,1.62,1.62,0,0,0-.85,1.5c0,1.14.72,1.79,2.24,1.79A4.52,4.52,0,0,0,346.52,142.21Z"/><path class="cls-1" d="M355.71,148.7h-3.3V134.35h2.77l.3,2.87a4.93,4.93,0,0,1,4.87-3.22c3.46,0,5.31,2.3,5.31,5.86v8.84h-3.29v-8c0-2.32-.78-3.81-3.1-3.81s-3.56,1.72-3.56,4.36Z"/><path class="cls-1" d="M367.86,130.63c0-1.59.75-2.14,2.17-2.14s2.17.55,2.17,2.14-.72,2.18-2.17,2.18S367.86,132.26,367.86,130.63Zm.48,18.07V134.35h3.32V148.7Z"/><path class="cls-1" d="M371.68,154.58v-3h.73c1.92,0,2.27-.25,2.27-2.57V134.35h3.19v15c0,4.19-.92,5.21-5.14,5.21Zm2.45-24c0-1.59.75-2.14,2.17-2.14s2.17.55,2.17,2.14-.73,2.18-2.17,2.18S374.13,132.26,374.13,130.63Z"/><path class="cls-1" d="M390.14,145.83a6.18,6.18,0,0,1-5.86,3.24c-3.09,0-4.69-1.5-4.69-3.84a3.93,3.93,0,0,1,1.87-3.52c1.23-.77,2.22-1,4.94-1.37,2.55-.33,3.59-.67,3.59-1.85s-.79-1.94-3-1.94c-2.37,0-3.45,1-3.55,2.87h-3.36c.22-3.25,2.64-5.42,6.73-5.42,4.64,0,6.34,1.95,6.34,5v9.68h-2.65Zm-.12-3.62v-.77a6.8,6.8,0,0,1-2.89.92,7.34,7.34,0,0,0-3.12.9,1.62,1.62,0,0,0-.85,1.5c0,1.14.72,1.79,2.24,1.79A4.52,4.52,0,0,0,390,142.21Z"/><path class="cls-1" d="M394.64,154.06v-2.85h1.68c1.92,0,2.44-.39,3.29-2.22l.27-.67-5.93-14h3.49l3.89,9.71.12.64.18-.62,3.79-9.73h3.44l-6.28,15.17c-1.67,4-2.45,4.54-6.29,4.54Z"/><path d="M245.54,58h6.15c2.95,0,10.77-1.74,13.73-5.23V58h7.65V33.28H251.69v7.5h6.75c-1.22,6.22-8.72,5.31-9.71,5.31-7.66,0-9.41-7.81-9.41-15.47,0-10.54,3-15.55,9.41-15.55,5.38,0,8.11,4.25,8.11,9.18h16.23V14.77c0-6.6-5.23-11.38-12-11.38H245.24c-17.44,0-21.69,9.71-21.69,22.76v8.79C223.55,45.86,226.28,58,245.54,58Z"/><polygon points="248.49 82.34 237.07 82.34 237.07 64.94 223.55 64.94 223.55 113.1 237.07 113.1 237.07 95.36 248.49 95.36 248.49 113.1 259.18 113.1 259.18 64.94 248.49 64.94 248.49 82.34"/><path d="M284.48,94.37a3.81,3.81,0,1,1-7.62,0V64.94H264V99.59a8,8,0,0,0,7.84,7.85h19.21A7.74,7.74,0,0,0,299,99.71V59.93H284.48Z"/><path d="M376.61,66.11H358.86a7.17,7.17,0,0,0-7.37,7.36v26.69a7.53,7.53,0,0,0,7.37,7.28h17.75a7.31,7.31,0,0,0,7.52-7.16V73.47C384.13,68.48,379.6,66.11,376.61,66.11Zm-.77,22.66a3.35,3.35,0,0,1-3.35,3.34h-9.34a3.34,3.34,0,0,1-3.35-3.34V75.22a3.35,3.35,0,0,1,3.35-3.35h9.34a3.36,3.36,0,0,1,3.35,3.35Z"/><path d="M340.29,61.75h23.84A9.88,9.88,0,0,0,374.24,52V20.18c0-6.81-6.08-10-10.11-10H340.29a9.69,9.69,0,0,0-9.91,10V51.86A10.16,10.16,0,0,0,340.29,61.75Zm2.21-36.69a4.77,4.77,0,0,1,4.66-4.88h6.47a4.77,4.77,0,0,1,4.79,5V45.27c0,2.85-1.68,4.85-4.77,4.87h-6.49c-2.82,0-4.66-1.72-4.66-4.87Z"/><path d="M430.69,45.45V12c0-7.13-6.37-10.69-11.53-10.69H380.71v54.6h39.36A10.42,10.42,0,0,0,430.69,45.45ZM416.58,34.6c0,7.51-3.79,10.62-9.33,10.62h-8.49V12h8.49c5.54,0,9.33,2.81,9.33,10.62Z"/><path d="M288.84,54.48H314.4c5.53,0,10.84-4.09,10.84-10.31V10.49c0-7.2-6.52-10.62-10.84-10.62H288.84a10.33,10.33,0,0,0-10.62,10.62V44A10.82,10.82,0,0,0,288.84,54.48Zm8.42-39.79a4.2,4.2,0,0,1,4.2-4.2h11.73a4.2,4.2,0,0,1,4.2,4.2V38a4.2,4.2,0,0,1-4.2,4.2H301.46a4.2,4.2,0,0,1-4.2-4.2Z"/><polygon points="325.52 74.02 310.97 60.08 303.87 59.93 303.87 113.1 317.45 113.1 317.45 79.14 325.35 86.24 333.07 79.14 333.07 113.1 346.65 113.1 346.65 66.13 334.29 66.13 325.52 74.02"/><path d="M423.84,93.88a9.37,9.37,0,0,0-4.57-5.62c6.54-.14,9.59-4.72,9.56-11.4V73.52c-.05-5.94-1.33-12.67-10.19-12.67h-30V113.1H403V89.87s8.18,1.5,10.08,11.9c1.41,7.8,4.48,11.61,10.11,12.31s10.75-2.46,10.75-2.46v-3.86C426.09,108.6,425.53,99.5,423.84,93.88ZM410.17,82.7H403V67.81h7.36c4.11,0,5.51,1.33,5.53,5.72v3.34C415.84,82.35,412.34,82.7,410.17,82.7Z"/></svg>