<?xml version="1.0" encoding="UTF-8"?>
<svg xmlns="http://www.w3.org/2000/svg" width="443.278" height="284" viewBox="0 0 443.278 284">
  <g id="Logo-ME-my-life-my-job-RGB-rz_orange_claim" transform="translate(-91.12 -59.31)">
    <g id="Gruppe_475" data-name="Gruppe 475" transform="translate(91.12 282.299)">
      <path id="Pfad_202" data-name="Pfad 202" d="M91.12,221.17V188.95h8.3l.073,6.422h.164a4.837,4.837,0,0,1,.511-1.131,12.068,12.068,0,0,1,1.569-2.226,9.036,9.036,0,0,1,2.81-2.153,9.609,9.609,0,0,1,4.415-.894,7.529,7.529,0,0,1,5.51,1.879,10.974,10.974,0,0,1,2.773,4.543h.164a5.144,5.144,0,0,1,.584-1.131,13.31,13.31,0,0,1,1.752-2.226,10.308,10.308,0,0,1,3.047-2.153,10.455,10.455,0,0,1,4.543-.894,8.7,8.7,0,0,1,4.853,1.241,8.4,8.4,0,0,1,2.9,3.284,15.33,15.33,0,0,1,1.4,4.342,35.188,35.188,0,0,1,.474,4.379c.055,1.387.073,2.518.073,3.412v15.563h-7.9V205.571a28.063,28.063,0,0,0-.237-3.448,6.967,6.967,0,0,0-1.332-3.412,4.423,4.423,0,0,0-3.758-1.441,4.717,4.717,0,0,0-3.667,1.3,6.425,6.425,0,0,0-1.533,3.248,21.869,21.869,0,0,0-.347,3.9v15.49h-7.9V205.571a28.064,28.064,0,0,0-.237-3.448,6.967,6.967,0,0,0-1.332-3.412,4.423,4.423,0,0,0-3.758-1.441,4.717,4.717,0,0,0-3.667,1.3,6.425,6.425,0,0,0-1.533,3.248,21.87,21.87,0,0,0-.347,3.9v15.49H91.12Z" transform="translate(-91.12 -175.412)" fill="#fa4500"></path>
      <path id="Pfad_203" data-name="Pfad 203" d="M117.79,236.431v-7.28h5.236a10.025,10.025,0,0,0,2.025-.2,3.686,3.686,0,0,0,1.843-1.131,13.025,13.025,0,0,0,1.989-3.12l1.569-3.448L117.863,188.94h9.706l7.426,22.678,8.046-22.678h9.779l-15.253,36.526a35.9,35.9,0,0,1-3.758,7.188,7.9,7.9,0,0,1-3.868,3.047,17.88,17.88,0,0,1-5.51.712H117.79Z" transform="translate(-69.131 -175.421)" fill="#fa4500"></path>
      <path id="Pfad_204" data-name="Pfad 204" d="M148.4,226.513V182.47h9.232v44.043Z" transform="translate(-43.893 -180.755)" fill="#fa4500"></path>
      <path id="Pfad_205" data-name="Pfad 205" d="M162.423,191.275c-1.934.055-3.229-.4-3.868-1.368a6.066,6.066,0,0,1-.985-3.485,5.581,5.581,0,0,1,.985-3.357c.657-.949,1.934-1.4,3.868-1.4s3.138.474,3.795,1.4a5.7,5.7,0,0,1,.985,3.357,5.83,5.83,0,0,1-.985,3.485C165.561,190.819,164.3,191.275,162.423,191.275Zm-4.689,35.906V194.96H167.2v32.22Z" transform="translate(-36.333 -181.423)" fill="#fa4500"></path>
      <path id="Pfad_206" data-name="Pfad 206" d="M169.9,227.379V201.563H165.76v-6.5H169.9v-4.452c0-3.339.785-5.674,2.354-7.043a9.76,9.76,0,0,1,6.568-2.043H186.8v7.353h-7.5v6.185h7.353v6.5H179.3v25.816H169.92Z" transform="translate(-29.58 -181.53)" fill="#fa4500"></path>
      <path id="Pfad_207" data-name="Pfad 207" d="M195.1,222.07a16.506,16.506,0,0,1-9.268-2.354,14.085,14.085,0,0,1-5.236-6.057,19.627,19.627,0,0,1-1.752-7.864,18.576,18.576,0,0,1,1.879-8.922,14.179,14.179,0,0,1,5.583-5.948,17.961,17.961,0,0,1,16.457-.237,13.882,13.882,0,0,1,5.546,5.364,16.7,16.7,0,0,1,2.116,8.247v2.025H187.818c0,2.664.639,4.652,1.916,5.948a7.887,7.887,0,0,0,9.469.693,4.9,4.9,0,0,0,1.989-3.284h9.159a13.257,13.257,0,0,1-4.342,8.721q-3.886,3.64-10.91,3.631Zm-7.115-19.7h12.99a9.633,9.633,0,0,0-.164-1.259,5.846,5.846,0,0,0-.785-1.989,5.48,5.48,0,0,0-1.916-1.843,6.77,6.77,0,0,0-3.558-.785,6.465,6.465,0,0,0-4.342,1.2,5.408,5.408,0,0,0-1.752,2.664c-.255.967-.42,1.624-.474,1.989Z" transform="translate(-18.797 -175.528)" fill="#fa4500"></path>
      <path id="Pfad_208" data-name="Pfad 208" d="M204.843,211.45c-2.189,0-3.649-.529-4.379-1.606a6.66,6.66,0,0,1-1.095-3.868,6.12,6.12,0,0,1,1.131-3.667c.766-1.04,2.208-1.569,4.342-1.569s3.485.529,4.233,1.569a6.221,6.221,0,0,1,1.095,3.667,6.62,6.62,0,0,1-1.095,3.9C208.346,210.921,206.942,211.45,204.843,211.45Z" transform="translate(-1.869 -165.692)" fill="#fa4500"></path>
      <path id="Pfad_209" data-name="Pfad 209" d="M218.175,221.17V188.95h8.283l.073,6.422h.164a4.837,4.837,0,0,1,.511-1.131,11.244,11.244,0,0,1,1.569-2.226,9.037,9.037,0,0,1,2.81-2.153,9.609,9.609,0,0,1,4.415-.894,7.529,7.529,0,0,1,5.51,1.879,10.974,10.974,0,0,1,2.773,4.543h.164a5.143,5.143,0,0,1,.584-1.131,13.31,13.31,0,0,1,1.752-2.226,10.01,10.01,0,0,1,7.59-3.047,7.985,7.985,0,0,1,7.754,4.525,15.33,15.33,0,0,1,1.4,4.342,35.182,35.182,0,0,1,.474,4.379c.055,1.387.073,2.518.073,3.412v15.563h-7.9V205.571a28.051,28.051,0,0,0-.237-3.448,6.967,6.967,0,0,0-1.332-3.412,4.423,4.423,0,0,0-3.758-1.441,4.761,4.761,0,0,0-3.685,1.3,6.425,6.425,0,0,0-1.533,3.248,21.868,21.868,0,0,0-.347,3.9v15.49h-7.9V205.571a28.059,28.059,0,0,0-.237-3.448,6.967,6.967,0,0,0-1.332-3.412,4.423,4.423,0,0,0-3.758-1.441,4.761,4.761,0,0,0-3.685,1.3,6.425,6.425,0,0,0-1.533,3.248,21.868,21.868,0,0,0-.347,3.9v15.49H218.12Z" transform="translate(13.59 -175.412)" fill="#fa4500"></path>
      <path id="Pfad_210" data-name="Pfad 210" d="M244.82,236.431v-7.28h5.236a10.349,10.349,0,0,0,2.043-.2,3.612,3.612,0,0,0,1.843-1.131,13.023,13.023,0,0,0,1.989-3.12l1.569-3.448L244.911,188.94h9.706l7.426,22.678,8.064-22.678h9.779l-15.253,36.526a35.9,35.9,0,0,1-3.758,7.188,7.9,7.9,0,0,1-3.868,3.047,17.88,17.88,0,0,1-5.51.712h-6.641Z" transform="translate(35.604 -175.421)" fill="#fa4500"></path>
      <path id="Pfad_211" data-name="Pfad 211" d="M279.337,194.35h9.469v38.1c0,3.339-.785,5.674-2.354,7.043a9.76,9.76,0,0,1-6.568,2.043H274.01v-7.28h5.328Zm4.853-1.879c-2.025,0-3.394-.493-4.069-1.478A6.223,6.223,0,0,1,279.1,187.4a6.065,6.065,0,0,1,1.022-3.558c.675-.967,2.043-1.441,4.069-1.441s3.321.474,4,1.441a6.065,6.065,0,0,1,1.022,3.558,6.223,6.223,0,0,1-1.022,3.594Q287.174,192.471,284.191,192.471Z" transform="translate(59.671 -180.813)" fill="#fa4500"></path>
      <path id="Pfad_212" data-name="Pfad 212" d="M302.08,222a18.481,18.481,0,0,1-9.3-2.116,13.392,13.392,0,0,1-5.51-5.875,19.168,19.168,0,0,1-1.843-8.52,16.567,16.567,0,0,1,4.069-11.9q4.215-4.68,12.589-4.689c5.583,0,9.542,1.514,12.352,4.543s4.215,7.043,4.215,12.042a19.037,19.037,0,0,1-1.806,8.411,13.784,13.784,0,0,1-5.473,5.911,17.92,17.92,0,0,1-9.3,2.189Zm0-7.9a7.4,7.4,0,0,0,4.817-1.332,6.457,6.457,0,0,0,2.153-3.394,16.319,16.319,0,0,0,.547-4.178,17.024,17.024,0,0,0-.547-4.269,6.6,6.6,0,0,0-2.153-3.448,7.293,7.293,0,0,0-4.817-1.368,7.436,7.436,0,0,0-4.853,1.368,6.553,6.553,0,0,0-2.189,3.448,16.7,16.7,0,0,0-.547,4.269,15.91,15.91,0,0,0,.547,4.178,6.274,6.274,0,0,0,2.189,3.394A7.545,7.545,0,0,0,302.08,214.1Z" transform="translate(69.075 -175.454)" fill="#fa4500"></path>
      <path id="Pfad_213" data-name="Pfad 213" d="M327.153,227.289a11.766,11.766,0,0,1-8.064-2.81,9,9,0,0,1-1.806-1.989c-.365-.6-.566-.949-.62-1.058H316.5l-1.478,5.09h-8.21V182.48h9.706l.073,18.227h.164s.164-.4.511-1.058a10.719,10.719,0,0,1,1.679-2.226,10.148,10.148,0,0,1,3.175-2.189,11.934,11.934,0,0,1,5.036-.93q7.115,0,10.053,4.452t2.937,12.279c0,5.218-.967,8.9-2.9,11.859q-2.9,4.406-10.089,4.415Zm-3.357-7.9a7.175,7.175,0,0,0,4.507-1.2,5.94,5.94,0,0,0,2.08-3.12,14.881,14.881,0,0,0,.547-4.105,14.361,14.361,0,0,0-.547-4.032,5.9,5.9,0,0,0-2.116-3.12,7.328,7.328,0,0,0-4.543-1.2c-2.865,0-4.762.821-5.711,2.463a13.141,13.141,0,0,0,.037,11.9q1.45,2.463,5.747,2.463Z" transform="translate(86.714 -180.747)" fill="#fa4500"></path>
      <path id="Pfad_214" data-name="Pfad 214" d="M333.633,211.45c-2.189,0-3.649-.529-4.379-1.606a6.66,6.66,0,0,1-1.095-3.868,6.12,6.12,0,0,1,1.131-3.667c.748-1.04,2.208-1.569,4.342-1.569s3.485.529,4.215,1.569a6.221,6.221,0,0,1,1.095,3.667,6.62,6.62,0,0,1-1.095,3.9C337.118,210.921,335.713,211.45,333.633,211.45Z" transform="translate(104.317 -165.692)" fill="#fa4500"></path>
    </g>
    <path id="Pfad_215" data-name="Pfad 215" d="M521.782,102.441a82.7,82.7,0,0,0-33.114-31.929Q467.677,59.319,441.1,59.31q-28.927,0-50.593,12.607a83.97,83.97,0,0,0-31.253,31.655A89.68,89.68,0,0,0,353.163,87.9a50.083,50.083,0,0,0-17.241-19.577Q324.728,60.879,307,60.861q-15.846,0-27.039,5.346a60.357,60.357,0,0,0-18.172,12.826,80.36,80.36,0,0,0-10.491,13.3c-2.335,3.886-3.5,6.13-3.5,6.751h-.93A65.408,65.408,0,0,0,230.32,72.045q-11.44-11.221-32.877-11.2-15.846,0-26.346,5.346a53.439,53.439,0,0,0-16.785,12.826,76.514,76.514,0,0,0-9.341,13.3c-2.007,3.886-3.01,6.13-3.01,6.751h-.949l-.456-38.241H91.13V252.943h49.881V160.606a130.982,130.982,0,0,1,2.1-23.317,38.218,38.218,0,0,1,9.086-19.358q7.006-7.69,21.912-7.681,15.846,0,22.386,8.612a41.192,41.192,0,0,1,7.937,20.288,175.243,175.243,0,0,1,1.387,20.525v93.268h47.108V160.606a130.954,130.954,0,0,1,2.08-23.317,38.367,38.367,0,0,1,9.086-19.358q7.006-7.69,21.93-7.681c10.546,0,18.026,2.864,22.368,8.612a41.191,41.191,0,0,1,7.937,20.288,175.637,175.637,0,0,1,1.4,20.525v93.268h47.09v-31.2a86.677,86.677,0,0,0,22.861,21.711q21.237,14.012,55.282,14.012,41.954,0,65.043-21.693,23.071-21.675,25.889-52H479.345a29.154,29.154,0,0,1-11.9,19.577q-10.044,7.444-25.433,7.462-19.595,0-31-11.659c-8.976-9.159-11.312-22.368-11.531-34.72v-.73h134.9V151.574q-.493-28.435-12.607-49.206ZM400.873,139.989c.219-1.441.4-2.883.675-4.288,1.788-9.122,5.291-17.26,12.279-23.481q8.128-7.2,25.889-7.225,13.52,0,21.219,4.671a32.427,32.427,0,0,1,11.421,10.965,34.988,34.988,0,0,1,4.671,11.877,60.978,60.978,0,0,1,.931,7.48H400.892Z" transform="translate(0.008 0)" fill="#fa4500"></path>
  </g>
</svg>
