<?xml version="1.0" encoding="UTF-8"?>
<svg id="Ebene_2" data-name="Ebene 2" xmlns="http://www.w3.org/2000/svg" xmlns:xlink="http://www.w3.org/1999/xlink" viewBox="0 0 42.52 42.52">
  <defs>
    <style>
      .cls-1 {
        fill: none;
      }

      .cls-2 {
        fill: #f3efe7;
      }

      .cls-3 {
        fill: #171513;
      }

      .cls-4 {
        clip-path: url(#clippath);
      }
    </style>
    <clipPath id="clippath">
      <rect class="cls-1" width="42.52" height="42.52"/>
    </clipPath>
  </defs>
  <g id="Ebene_1-2" data-name="Ebene 1">
    <g class="cls-4">
      <path class="cls-3" d="M42.51,42.52c-6.48-2.92-13.68-4.55-21.25-4.55S6.48,39.6,0,42.52V0h42.52v42.52Z"/>
      <path class="cls-2" d="M5.1,12.88c-2,0-2.16,2.02-2.16,2.02h-.95v-3h7.44s.06,2.32-2.14,4.78c0,0-2.09,2.43-2.15,3.5h1.21c1.73,0,1.91-2.02,1.91-2.02h1v3.01H1.64s-.28-2.28,2.36-5.05c0,0,1.62-1.81,2-3.25h-.9Z"/>
      <path class="cls-2" d="M24.04,21.16v-.98h-.23c-.41,0-.74-.33-.74-.74v-5.8c0-.41.33-.74.74-.74h.23v-.98h-4.93v.98h.23c.42,0,.75.33.75.74v5.8c0,.41-.33.74-.75.74h-.23v.98h4.93Z"/>
      <path class="cls-2" d="M18.09,21.17v-3.01h-1s-.18,2.02-1.92,2.02h-.99v-3.16h.35c.42,0,.75.33.75.75v.37h.98v-3.24h-.98v.38c0,.42-.33.75-.75.75h-.35v-3.16h.99c1.73,0,1.92,2.02,1.92,2.02h1v-3.01h-7.84v.99h.22c.41,0,.74.33.74.74v5.8c0,.41-.33.74-.74.74h-.22v.98h7.84Z"/>
      <path class="cls-2" d="M29.23,12.88c2,0,2.15,2.02,2.15,2.02h.96v-3h-7.11s-1.12,1.47,1.81,4.78c0,0,2.09,2.43,2.14,3.5h-1.2c-1.73,0-1.92-2.02-1.92-2.02h-1v3.01h7.17s1.3-1.41-1.92-5.05c0,0-1.69-1.74-2-3.25h.91Z"/>
      <path class="cls-2" d="M37.54,12.88c1.99,0,2.15,2.02,2.15,2.02h.95v-3h-7.1s-1.12,1.47,1.81,4.78c0,0,2.09,2.43,2.14,3.5h-1.2c-1.73,0-1.92-2.02-1.92-2.02h-.99v3.01h7.17s1.3-1.41-1.92-5.05c0,0-1.69-1.74-2-3.25h.91Z"/>
    </g>
  </g>
</svg>