<svg xmlns="http://www.w3.org/2000/svg" viewBox="0 0 24 24"><path d="M12 2c2.72 0 3.06.01 4.12.06 1.07.05 1.8.22 2.43.46.66.26 1.22.6 1.77 1.16.56.55.9 1.11 1.16 1.77.24.63.41 1.36.46 2.43.05 1.06.06 1.4.06 4.12s-.01 3.06-.06 4.12c-.05 1.07-.22 1.8-.46 2.43-.26.66-.6 1.22-1.16 1.77-.55.56-1.11.9-1.77 1.16-.63.24-1.36.41-2.43.46-1.06.05-1.4.06-4.12.06s-3.06-.01-4.12-.06c-1.07-.05-1.8-.22-2.43-.46a4.9 4.9 0 0 1-1.77-1.16 4.9 4.9 0 0 1-1.16-1.77c-.24-.63-.41-1.36-.46-2.43C2.01 15.06 2 14.72 2 12s.01-3.06.06-4.12c.05-1.07.22-1.8.46-2.43.26-.66.6-1.22 1.16-1.77.55-.56 1.11-.9 1.77-1.16.63-.24 1.36-.41 2.43-.46C8.94 2.01 9.28 2 12 2zm0 1.8c-2.67 0-2.99.01-4.04.06-.98.04-1.5.2-1.86.34-.47.18-.8.4-1.15.74-.35.35-.56.68-.74 1.15-.14.36-.3.88-.34 1.86-.05 1.05-.06 1.37-.06 4.04s.01 2.99.06 4.04c.4.98.2 1.5.34 1.86.18.47.4.8.74 1.15.35.35.68.56 1.15.74.36.14.88.3 1.86.34 1.05.05 1.37.06 4.04.06s2.99-.01 4.04-.06c.98-.04 1.5-.2 1.86-.34.47-.18.8-.4 1.15-.74.35-.35.56-.68.74-1.15.14-.36.3-.88.34-1.86.05-1.05.06-1.37.06-4.04s-.01-2.99-.06-4.04c-.04-.98-.2-1.5-.34-1.86a3.1 3.1 0 0 0-.74-1.15 3.1 3.1 0 0 0-1.15-.74c-.36-.14-.88-.3-1.86-.34-1.05-.05-1.37-.06-4.04-.06zm0 3.06a5.14 5.14 0 1 1 0 10.28 5.14 5.14 0 0 1 0-10.28zm0 1.8a3.34 3.34 0 1 0 0 6.68 3.34 3.34 0 0 0 0-6.68zm5.34-3.2a1.2 1.2 0 1 1 0 2.4 1.2 1.2 0 0 1 0-2.4z"/></svg>
